<?xml version="1.0" encoding="iso-8859-1"?>
<!-- Generator: Adobe Illustrator 19.0.0, SVG Export Plug-In . SVG Version: 6.00 Build 0)  -->
<svg version="1.1" id="Capa_1" xmlns="http://www.w3.org/2000/svg" xmlns:xlink="http://www.w3.org/1999/xlink" x="0px" y="0px"
	 viewBox="0 0 512 512" style="enable-background:new 0 0 512 512;" xml:space="preserve">
<circle style="fill:#C3DDF4;" cx="256" cy="267" r="245"/>
<path style="fill:#2E4C89;" d="M73.065,13c-11.028,0-20,8.972-20,20v38.496c0,11.028,8.972,20,20,20h53.639V102h20V91.496
	c0-11.028-8.972-20-20-20H73.065V33H175V13H73.065z"/>
<path style="fill:#159E97;" d="M123,117h26c3.744,0,7.416,0.311,11,0.887V106c0-2.75-2.25-5-5-5h-38c-2.75,0-5,2.25-5,5v11.887
	C115.584,117.311,119.256,117,123,117z"/>
<path style="fill:#057C76;" d="M125,106c0-2.75,2.25-5,5-5h-13c-2.75,0-5,2.25-5,5v11.887c3.584-0.576,7.256-0.887,11-0.887h2V106z"
	/>
<g>
	<path style="fill:#1A2B63;" d="M462.903,247.07h-2.342V302h18.008v-60.426C474.275,245.011,468.831,247.07,462.903,247.07z"/>
	<path style="fill:#1A2B63;" d="M248.557,241.574V302h18.007v-54.93h-2.342C258.295,247.07,252.851,245.011,248.557,241.574z"/>
</g>
<path style="fill:#445EA0;" d="M266.564,193.163h-2.342c-13.86,0-25.097,11.234-25.097,25.094v4.882
	c0,13.86,11.236,25.095,25.097,25.095h2.342V193.163z"/>
<g>
	<path style="fill:#2E4C89;" d="M462.903,193.163h-2.342v55.07h2.342c13.86,0,25.097-11.234,25.097-25.095v-4.882
		C488,204.398,476.763,193.163,462.903,193.163z"/>
	<rect x="331.68" y="161.79" style="fill:#2E4C89;" width="63.769" height="23.06"/>
</g>
<rect x="331.68" y="161.79" style="fill:#293D7C;" width="20.553" height="23.06"/>
<path style="fill:#445EA0;" d="M461.561,302V191.947c0-4.454-3.645-8.1-8.1-8.1H273.664c-4.454,0-8.1,3.645-8.1,8.1V302H461.561z"/>
<path style="fill:#2E4C89;" d="M290.1,183.848h-16.435c-4.454,0-8.1,3.645-8.1,8.1V302H282V191.947
	C282,187.493,285.645,183.848,290.1,183.848z"/>
<path style="fill:#9CE2D8;" d="M432.405,302v-74.42c0-6.682-5.467-12.149-12.149-12.149H306.87c-6.682,0-12.148,5.468-12.148,12.149
	V302H432.405z"/>
<path style="fill:#74D1C1;" d="M322.148,215.431H306.87c-6.682,0-12.148,5.468-12.148,12.149V302H310v-74.42
	C310,220.898,315.467,215.431,322.148,215.431z"/>
<path style="fill:#6DC3ED;" d="M316.387,254.181c0-13.327,10.842-24.168,24.168-24.168h48.851c13.327,0,24.169,10.841,24.169,24.168
	s-10.843,24.169-24.169,24.169h-48.851C327.229,278.35,316.387,267.508,316.387,254.181z"/>
<path style="fill:#FFFFFF;" d="M340.555,270.251c-8.875,0-16.069-7.196-16.069-16.07l0,0c0-8.875,7.194-16.069,16.069-16.069h48.851
	c8.875,0,16.07,7.194,16.07,16.069l0,0c0,8.874-7.195,16.07-16.07,16.07H340.555z"/>
<path style="fill:#02AF8E;" d="M372.694,238.111h-32.139c-8.875,0-16.069,7.194-16.069,16.069c0,8.874,7.194,16.07,16.069,16.07
	h32.139V238.111z"/>
<path style="fill:#159E97;" d="M334.792,254.181c0-8.875,7.194-16.069,16.069-16.069h-10.306c-8.875,0-16.069,7.194-16.069,16.069
	c0,8.874,7.194,16.07,16.069,16.07h10.306C341.986,270.251,334.792,263.055,334.792,254.181z"/>
<path style="fill:#94C2ED;" d="M207.034,301c-3.588,8.1-8.729,15.701-15.228,22.272c-13.438,13.587-31.255,21.379-48.882,21.379
	h-13.851c-17.627,0-35.445-7.792-48.883-21.379C73.691,316.702,68.55,309.1,64.963,301H13.359C29.914,420.215,132.229,512,256,512
	s226.086-91.785,242.641-211H207.034z"/>
<path style="fill:#FFE2B8;" d="M59.093,274.093V228H48c-6.075,0-11,4.925-11,11v28.999c0,6.075,4.925,11,11,11h11.31
	C59.18,277.364,59.093,275.728,59.093,274.093z"/>
<path style="fill:#FFC987;" d="M224,228h-11.095v46.093c0,1.635-0.087,3.271-0.217,4.906H224c6.075,0,11-4.925,11-11V239
	C235,232.925,230.075,228,224,228z"/>
<path style="fill:#293D7C;" d="M199.236,353.5h-31.548v-13.934c-7.972,3.305-16.387,5.084-24.764,5.084h-13.851
	c-8.377,0-16.792-1.779-24.765-5.084V353.5H72.762c-11.432,0-20.734,9.3-20.734,20.733v28.511
	c37.601,56.387,97.953,96.296,167.944,106.612V374.233C219.972,362.8,210.671,353.5,199.236,353.5z"/>
<path style="fill:#FFE2B8;" d="M58.093,221.813v52.28c0,37.607,33.373,71.558,70.981,71.558h13.851
	c37.607,0,70.98-33.95,70.98-71.558v-52.28L58.093,221.813L58.093,221.813z"/>
<path style="fill:#FFC987;" d="M73,274.093v-52.28H58.093v52.28c0,37.607,33.373,71.558,70.981,71.558h13.851
	c0.177,0,0.352-0.014,0.528-0.015C106.061,345.318,73,311.523,73,274.093z"/>
<path style="fill:#0F9390;" d="M219,189v-3c0-38.5-31.5-70-70-70h-26c-38.5,0-70,31.5-70,70v3H219z"/>
<path style="fill:#057C76;" d="M143,116h-20c-38.5,0-70,31.5-70,70v3h20v-3C73,147.5,104.5,116,143,116z"/>
<g>
	<path style="fill:#EBAA48;" d="M174.948,254.542c-4.142,0-7.5-3.357-7.5-7.5v-12.005c0-4.143,3.358-7.5,7.5-7.5s7.5,3.357,7.5,7.5
		v12.005C182.448,251.185,179.09,254.542,174.948,254.542z"/>
	<path style="fill:#EBAA48;" d="M97.051,254.542c-4.142,0-7.5-3.357-7.5-7.5v-12.005c0-4.143,3.358-7.5,7.5-7.5s7.5,3.357,7.5,7.5
		v12.005C104.551,251.185,101.193,254.542,97.051,254.542z"/>
	<path style="fill:#EBAA48;" d="M136.194,278.185h-7.985c-4.142,0-7.5-3.358-7.5-7.5c0-4.143,3.358-7.5,7.5-7.5h5.485v-15.068
		c0-4.143,3.358-7.5,7.5-7.5s7.5,3.357,7.5,7.5v17.568C148.694,272.577,143.087,278.185,136.194,278.185z"/>
</g>
<path style="fill:#FF8DB9;" d="M136,328.452c-18.998,0-34.452-15.454-34.452-34.452c0-2.416,1.959-4.375,4.375-4.375h60.155
	c2.416,0,4.374,1.959,4.374,4.375C170.452,312.998,154.997,328.452,136,328.452z"/>
<g>
	<path style="fill:#2E4C89;" d="M255.5,361.326c-9.374,0-17-7.851-17-17.5V334c0-9.649,7.626-17.5,17-17.5s17,7.851,17,17.5v9.826
		C272.5,353.476,264.874,361.326,255.5,361.326z M255.5,331.5c-1.065,0-2,1.168-2,2.5v9.826c0,1.332,0.935,2.5,2,2.5s2-1.168,2-2.5
		V334C257.5,332.668,256.565,331.5,255.5,331.5z"/>
	<path style="fill:#2E4C89;" d="M286,361.326c-4.142,0-7.5-3.357-7.5-7.5V324c0-4.143,3.358-7.5,7.5-7.5s7.5,3.357,7.5,7.5v29.826
		C293.5,357.969,290.142,361.326,286,361.326z"/>
	<path style="fill:#2E4C89;" d="M318.5,361.326c-9.374,0-17-7.851-17-17.5V334c0-9.649,7.626-17.5,17-17.5s17,7.851,17,17.5v9.826
		C335.5,353.476,327.874,361.326,318.5,361.326z M318.5,331.5c-1.065,0-2,1.168-2,2.5v9.826c0,1.332,0.935,2.5,2,2.5s2-1.168,2-2.5
		V334C320.5,332.668,319.565,331.5,318.5,331.5z"/>
	<path style="fill:#2E4C89;" d="M349,361.326c-4.142,0-7.5-3.357-7.5-7.5V324c0-4.143,3.358-7.5,7.5-7.5s7.5,3.357,7.5,7.5v29.826
		C356.5,357.969,353.142,361.326,349,361.326z"/>
	<path style="fill:#2E4C89;" d="M373,361.326c-4.142,0-7.5-3.357-7.5-7.5V324c0-4.143,3.358-7.5,7.5-7.5s7.5,3.357,7.5,7.5v29.826
		C380.5,357.969,377.142,361.326,373,361.326z"/>
	<path style="fill:#2E4C89;" d="M404.5,361.326c-9.374,0-17-7.851-17-17.5V334c0-9.649,7.626-17.5,17-17.5s17,7.851,17,17.5v9.826
		C421.5,353.476,413.874,361.326,404.5,361.326z M404.5,331.5c-1.065,0-2,1.168-2,2.5v9.826c0,1.332,0.935,2.5,2,2.5s2-1.168,2-2.5
		V334C406.5,332.668,405.565,331.5,404.5,331.5z"/>
	<path style="fill:#2E4C89;" d="M435,361.326c-4.142,0-7.5-3.357-7.5-7.5V324c0-4.143,3.358-7.5,7.5-7.5s7.5,3.357,7.5,7.5v29.826
		C442.5,357.969,439.142,361.326,435,361.326z"/>
	<path style="fill:#2E4C89;" d="M425.5,411.941c-9.374,0-17-7.851-17-17.5v-9.826c0-9.649,7.626-17.5,17-17.5s17,7.851,17,17.5
		v9.826C442.5,404.091,434.874,411.941,425.5,411.941z M425.5,382.115c-1.065,0-2,1.168-2,2.5v9.826c0,1.332,0.935,2.5,2,2.5
		s2-1.168,2-2.5v-9.826C427.5,383.283,426.565,382.115,425.5,382.115z"/>
	<path style="fill:#2E4C89;" d="M395,411.941c-4.142,0-7.5-3.357-7.5-7.5v-29.826c0-4.143,3.358-7.5,7.5-7.5s7.5,3.357,7.5,7.5
		v29.826C402.5,408.584,399.142,411.941,395,411.941z"/>
	<path style="fill:#2E4C89;" d="M362.5,411.941c-9.374,0-17-7.851-17-17.5v-9.826c0-9.649,7.626-17.5,17-17.5s17,7.851,17,17.5
		v9.826C379.5,404.091,371.874,411.941,362.5,411.941z M362.5,382.115c-1.065,0-2,1.168-2,2.5v9.826c0,1.332,0.935,2.5,2,2.5
		s2-1.168,2-2.5v-9.826C364.5,383.283,363.565,382.115,362.5,382.115z"/>
	<path style="fill:#2E4C89;" d="M332,411.941c-4.142,0-7.5-3.357-7.5-7.5v-29.826c0-4.143,3.358-7.5,7.5-7.5s7.5,3.357,7.5,7.5
		v29.826C339.5,408.584,336.142,411.941,332,411.941z"/>
	<path style="fill:#2E4C89;" d="M308,411.941c-4.142,0-7.5-3.357-7.5-7.5v-29.826c0-4.143,3.358-7.5,7.5-7.5s7.5,3.357,7.5,7.5
		v29.826C315.5,408.584,312.142,411.941,308,411.941z"/>
	<path style="fill:#2E4C89;" d="M276.5,411.941c-9.374,0-17-7.851-17-17.5v-9.826c0-9.649,7.626-17.5,17-17.5s17,7.851,17,17.5
		v9.826C293.5,404.091,285.874,411.941,276.5,411.941z M276.5,382.115c-1.065,0-2,1.168-2,2.5v9.826c0,1.332,0.935,2.5,2,2.5
		s2-1.168,2-2.5v-9.826C278.5,383.283,277.565,382.115,276.5,382.115z"/>
	<path style="fill:#2E4C89;" d="M246,411.941c-4.142,0-7.5-3.357-7.5-7.5v-29.826c0-4.143,3.358-7.5,7.5-7.5s7.5,3.357,7.5,7.5
		v29.826C253.5,408.584,250.142,411.941,246,411.941z"/>
	<path style="fill:#2E4C89;" d="M255.5,462.5c-9.374,0-17-7.851-17-17.5v-9.826c0-9.649,7.626-17.5,17-17.5s17,7.851,17,17.5V445
		C272.5,454.649,264.874,462.5,255.5,462.5z M255.5,432.674c-1.065,0-2,1.168-2,2.5V445c0,1.332,0.935,2.5,2,2.5s2-1.168,2-2.5
		v-9.826C257.5,433.842,256.565,432.674,255.5,432.674z"/>
	<path style="fill:#2E4C89;" d="M286,462.5c-4.142,0-7.5-3.357-7.5-7.5v-29.826c0-4.142,3.358-7.5,7.5-7.5s7.5,3.358,7.5,7.5V455
		C293.5,459.143,290.142,462.5,286,462.5z"/>
	<path style="fill:#2E4C89;" d="M310,462.5c-4.142,0-7.5-3.357-7.5-7.5v-29.826c0-4.142,3.358-7.5,7.5-7.5s7.5,3.358,7.5,7.5V455
		C317.5,459.143,314.142,462.5,310,462.5z"/>
	<path style="fill:#2E4C89;" d="M341.5,462.5c-9.374,0-17-7.851-17-17.5v-9.826c0-9.649,7.626-17.5,17-17.5s17,7.851,17,17.5V445
		C358.5,454.649,350.874,462.5,341.5,462.5z M341.5,432.674c-1.065,0-2,1.168-2,2.5V445c0,1.332,0.935,2.5,2,2.5s2-1.168,2-2.5
		v-9.826C343.5,433.842,342.565,432.674,341.5,432.674z"/>
	<path style="fill:#2E4C89;" d="M372,462.5c-4.142,0-7.5-3.357-7.5-7.5v-29.826c0-4.142,3.358-7.5,7.5-7.5s7.5,3.358,7.5,7.5V455
		C379.5,459.143,376.142,462.5,372,462.5z"/>
</g>
<path style="fill:#159E97;" d="M50,187.813c-2.75,0-5,2.25-5,5v25c0,2.75,2.25,5,5,5h172c2.75,0,5-2.25,5-5v-25c0-2.75-2.25-5-5-5
	H50z"/>
<circle style="fill:#FFCA51;" cx="118.87" cy="205.31" r="9.126"/>
<circle style="fill:#FFFFFF;" cx="91.66" cy="205.31" r="9.126"/>
<circle style="fill:#EF8318;" cx="64.37" cy="205.31" r="9.126"/>
<path style="fill:#2E4C89;" d="M60.681,414.873c37.87,49.943,94.434,84.924,159.291,94.483v-94.483H60.681z"/>
<path style="fill:#159E97;" d="M275.821,74h-55.477V33c0-11.028-8.972-20-20-20H174v20h26.344v41c0,11.028,8.972,20,20,20h55.477
	L275.821,74L275.821,74z"/>
<path style="fill:#445EA0;" d="M295.721,45.354h-11.248c-5.5,0-10,4.5-10,10v56.941c0,5.5,4.5,10,10,10h11.248V45.354z"/>
<path style="fill:#2E4C89;" d="M442.652,45.354h-11.247v76.941h11.247c5.5,0,10-4.5,10-10V55.354
	C452.652,49.854,448.152,45.354,442.652,45.354z"/>
<path style="fill:#445EA0;" d="M432.405,147.79c0,8.25-6.75,15-15,15H309.721c-8.25,0-15-6.75-15-15V15c0-8.25,6.75-15,15-15
	h107.684c8.25,0,15,6.75,15,15V147.79z"/>
<path style="fill:#2E4C89;" d="M305,147.79V15c0-8.25,6.75-15,15-15h-10.279c-8.25,0-15,6.75-15,15v132.79c0,8.25,6.75,15,15,15H320
	C311.75,162.79,305,156.04,305,147.79z"/>
<path style="fill:#293D7C;" d="M421.115,89.493c0,6.683-5.467,12.149-12.148,12.149H318.16c-6.682,0-12.148-5.467-12.148-12.149
	V39.685c0-6.682,5.466-12.148,12.148-12.148h90.808c6.681,0,12.148,5.466,12.148,12.148v49.808H421.115z"/>
<path style="fill:#1A2B63;" d="M331.17,27.537v1.417c0,6.682,5.467,12.148,12.149,12.148h40.489c6.682,0,12.148-5.467,12.148-12.148
	v-1.417C395.956,27.537,331.17,27.537,331.17,27.537z"/>
<g>
	<path style="fill:#159E97;" d="M345.898,76.8c0,2.75-2.25,5-5,5h-8.096c-2.75,0-5-2.25-5-5V56.641c0-2.75,2.25-5,5-5h8.096
		c2.75,0,5,2.25,5,5V76.8z"/>
	<path style="fill:#159E97;" d="M399.323,76.8c0,2.75-2.25,5-5,5h-8.095c-2.75,0-5-2.25-5-5V56.641c0-2.75,2.25-5,5-5h8.095
		c2.75,0,5,2.25,5,5V76.8z"/>
	<path style="fill:#159E97;" d="M401.765,131.257c0,2.75-2.25,5-5,5h-66.404c-2.75,0-5-2.25-5-5v-7.201c0-2.75,2.25-5,5-5h66.404
		c2.75,0,5,2.25,5,5V131.257z"/>
</g>
<g>
	<path style="fill:#02AF8E;" d="M82.122,175c11.046,0,20-8.954,20-20s-8.954-20-20-20h-6.921
		c-11.094,10.407-18.826,24.356-21.323,40H82.122z"/>
	<path style="fill:#02AF8E;" d="M196.799,135h-7.921c-11.046,0-20,8.954-20,20s8.954,20,20,20h29.244
		C215.625,159.356,207.893,145.407,196.799,135z"/>
</g>
<g>
</g>
<g>
</g>
<g>
</g>
<g>
</g>
<g>
</g>
<g>
</g>
<g>
</g>
<g>
</g>
<g>
</g>
<g>
</g>
<g>
</g>
<g>
</g>
<g>
</g>
<g>
</g>
<g>
</g>
</svg>
